<?xml version="1.0" encoding="UTF-8" standalone="no"?>
<svg
   xmlns:dc="http://purl.org/dc/elements/1.1/"
   xmlns:cc="http://creativecommons.org/ns#"
   xmlns:rdf="http://www.w3.org/1999/02/22-rdf-syntax-ns#"
   xmlns:svg="http://www.w3.org/2000/svg"
   xmlns="http://www.w3.org/2000/svg"
   xmlns:sodipodi="http://sodipodi.sourceforge.net/DTD/sodipodi-0.dtd"
   xmlns:inkscape="http://www.inkscape.org/namespaces/inkscape"
   version="1.1"
   x="0px"
   y="0px"
   viewBox="0 0 99.934998 37.672001"
   enable-background="new 0 0 100 100"
   xml:space="preserve"
   id="svg4188"
   inkscape:version="0.91 r13725"
   sodipodi:docname="icon_battery_0.svg"
   width="99.934998"
   height="37.672001"><metadata
     id="metadata4200"><rdf:RDF><cc:Work
         rdf:about=""><dc:format>image/svg+xml</dc:format><dc:type
           rdf:resource="http://purl.org/dc/dcmitype/StillImage" /><dc:title></dc:title></cc:Work></rdf:RDF></metadata><defs
     id="defs4198" /><sodipodi:namedview
     pagecolor="#ffffff"
     bordercolor="#666666"
     borderopacity="1"
     objecttolerance="10"
     gridtolerance="10"
     guidetolerance="10"
     inkscape:pageopacity="0"
     inkscape:pageshadow="2"
     inkscape:window-width="2556"
     inkscape:window-height="1371"
     id="namedview4196"
     showgrid="false"
     fit-margin-top="0"
     fit-margin-left="0"
     fit-margin-right="0"
     fit-margin-bottom="0"
     inkscape:zoom="9.2"
     inkscape:cx="49.968"
     inkscape:cy="6.337"
     inkscape:window-x="0"
     inkscape:window-y="30"
     inkscape:window-maximized="0"
     inkscape:current-layer="svg4188" /><path
     d="M 99.868,12.579 C 99.683,11.828 99.095,11.24 98.345,11.055 l -0.067,-0.068 -3.573,0 0,-7.325 C 94.705,1.643 93.061,0 91.043,0 L 3.662,0 C 1.643,0 0,1.644 0,3.662 L 0,34.01 c 0,2.02 1.644,3.662 3.662,3.662 l 87.38,0 c 2.019,0 3.662,-1.643 3.662,-3.662 l 0,-7.325 3.573,0 0.067,-0.067 c 0.75,-0.186 1.339,-0.774 1.523,-1.524 l 0.068,-0.068 0,-12.379 -0.067,-0.068 z m -7.257,21.43 c 0,0.865 -0.704,1.57 -1.569,1.57 l -87.38,0 c -0.865,0 -1.569,-0.705 -1.569,-1.57 l 0,-30.348 c 0,-0.865 0.704,-1.569 1.569,-1.569 l 87.38,0 c 0.865,0 1.569,0.704 1.569,1.569 l 0,7.325 0,15.697 0,7.326 z"
     id="path4190"
     inkscape:connector-curvature="0" /></svg>