<?xml version="1.0" encoding="UTF-8" standalone="no"?>
<svg
   xmlns:dc="http://purl.org/dc/elements/1.1/"
   xmlns:cc="http://creativecommons.org/ns#"
   xmlns:rdf="http://www.w3.org/1999/02/22-rdf-syntax-ns#"
   xmlns:svg="http://www.w3.org/2000/svg"
   xmlns="http://www.w3.org/2000/svg"
   xmlns:sodipodi="http://sodipodi.sourceforge.net/DTD/sodipodi-0.dtd"
   xmlns:inkscape="http://www.inkscape.org/namespaces/inkscape"
   version="1.1"
   x="0px"
   y="0px"
   viewBox="0 0 99.935997 37.672001"
   enable-background="new 0 0 100 100"
   xml:space="preserve"
   id="svg4846"
   inkscape:version="0.91 r13725"
   sodipodi:docname="icon_no_battery_power.svg"
   width="99.935997"
   height="37.672001"><metadata
     id="metadata4862"><rdf:RDF><cc:Work
         rdf:about=""><dc:format>image/svg+xml</dc:format><dc:type
           rdf:resource="http://purl.org/dc/dcmitype/StillImage" /></cc:Work></rdf:RDF></metadata><defs
     id="defs4860" /><sodipodi:namedview
     pagecolor="#ffffff"
     bordercolor="#666666"
     borderopacity="1"
     objecttolerance="10"
     gridtolerance="10"
     guidetolerance="10"
     inkscape:pageopacity="0"
     inkscape:pageshadow="2"
     inkscape:window-width="2556"
     inkscape:window-height="1371"
     id="namedview4858"
     showgrid="false"
     fit-margin-top="0"
     fit-margin-left="0"
     fit-margin-right="0"
     fit-margin-bottom="0"
     inkscape:zoom="1.888"
     inkscape:cx="-89.861508"
     inkscape:cy="6.337"
     inkscape:window-x="0"
     inkscape:window-y="30"
     inkscape:window-maximized="0"
     inkscape:current-layer="svg4846" /><g
     id="g4848"
     transform="translate(-0.031,-31.165)"><path
       d="m 99.9,43.743 c -0.186,-0.75 -0.773,-1.339 -1.523,-1.524 l -0.068,-0.067 -3.572,0 0,-7.325 c 0,-2.02 -1.645,-3.662 -3.662,-3.662 l -87.382,0 c -2.018,0 -3.662,1.643 -3.662,3.662 l 0,30.347 c 0,2.02 1.645,3.663 3.662,3.663 l 87.381,0 c 2.018,0 3.662,-1.644 3.662,-3.663 l 0,-7.324 3.572,0 0.068,-0.068 c 0.75,-0.186 1.338,-0.773 1.523,-1.524 l 0.068,-0.067 0,-12.38 -0.067,-0.068 z m -7.257,21.43 c 0,0.865 -0.703,1.569 -1.568,1.569 l -87.382,0 c -0.865,0 -1.568,-0.704 -1.568,-1.569 l 0,-30.347 c 0,-0.866 0.703,-1.57 1.568,-1.57 l 87.381,0 c 0.865,0 1.568,0.704 1.568,1.57 l 0,7.325 0,15.697 0,7.325 z"
       id="path4850"
       inkscape:connector-curvature="0" /><path
       d="M 64.723,48.533 64.434,48.46 56.143,46.387 42.752,43.042 42.488,42.974 c -0.016,-0.006 -0.035,-0.006 -0.053,-0.006 -0.428,0 -0.773,0.348 -0.773,0.776 l 0,6.263 -11.291,0 c -0.432,0 -0.777,0.348 -0.777,0.776 0,0.33 0.203,0.609 0.492,0.724 0.041,0.015 0.082,0.026 0.129,0.037 0.004,0 0.004,0 0.01,0 l 8.334,2.085 13.551,3.387 c 0.045,0.01 0.102,0.016 0.154,0.016 0.43,0 0.775,-0.348 0.775,-0.776 l 0,-6.248 11.359,0 c 0.428,0 0.775,-0.346 0.775,-0.774 0.001,-0.312 -0.185,-0.583 -0.45,-0.701 z"
       id="path4852"
       inkscape:connector-curvature="0" /></g></svg>