<?xml version="1.0" encoding="UTF-8" standalone="no"?>
<svg
   xmlns:dc="http://purl.org/dc/elements/1.1/"
   xmlns:cc="http://creativecommons.org/ns#"
   xmlns:rdf="http://www.w3.org/1999/02/22-rdf-syntax-ns#"
   xmlns:svg="http://www.w3.org/2000/svg"
   xmlns="http://www.w3.org/2000/svg"
   xmlns:sodipodi="http://sodipodi.sourceforge.net/DTD/sodipodi-0.dtd"
   xmlns:inkscape="http://www.inkscape.org/namespaces/inkscape"
   version="1.1"
   x="0px"
   y="0px"
   viewBox="0 0 100 37.695999"
   enable-background="new 0 0 100 100"
   xml:space="preserve"
   id="svg4244"
   inkscape:version="0.91 r13725"
   sodipodi:docname="icon_battery_25.svg"
   width="100"
   height="37.695999"><metadata
     id="metadata4260"><rdf:RDF><cc:Work
         rdf:about=""><dc:format>image/svg+xml</dc:format><dc:type
           rdf:resource="http://purl.org/dc/dcmitype/StillImage" /><dc:title></dc:title></cc:Work></rdf:RDF></metadata><defs
     id="defs4258" /><sodipodi:namedview
     pagecolor="#ffffff"
     bordercolor="#666666"
     borderopacity="1"
     objecttolerance="10"
     gridtolerance="10"
     guidetolerance="10"
     inkscape:pageopacity="0"
     inkscape:pageshadow="2"
     inkscape:window-width="2556"
     inkscape:window-height="1371"
     id="namedview4256"
     showgrid="false"
     fit-margin-top="0"
     fit-margin-left="0"
     fit-margin-right="0"
     fit-margin-bottom="0"
     inkscape:zoom="1.888"
     inkscape:cx="-89.830508"
     inkscape:cy="6.348"
     inkscape:window-x="0"
     inkscape:window-y="30"
     inkscape:window-maximized="0"
     inkscape:current-layer="svg4244" /><g
     id="g4246"
     transform="translate(0,-31.152)"><path
       d="m 99.933,43.739 c -0.186,-0.751 -0.774,-1.34 -1.525,-1.525 l -0.067,-0.067 -3.575,0 0,-7.33 c 0,-2.021 -1.645,-3.665 -3.664,-3.665 l -87.437,0 C 1.646,31.151 0,32.796 0,34.816 l 0,30.367 c 0,2.02 1.646,3.665 3.665,3.665 l 87.436,0 c 2.02,0 3.664,-1.646 3.664,-3.665 l 0,-7.33 3.575,0 0.067,-0.068 c 0.751,-0.186 1.34,-0.774 1.525,-1.525 L 100,56.192 100,43.808 99.933,43.739 Z m -7.261,21.445 c 0,0.866 -0.706,1.57 -1.571,1.57 l -87.436,0 c -0.866,0 -1.57,-0.704 -1.57,-1.57 l 0,-30.368 c 0,-0.866 0.704,-1.571 1.57,-1.571 l 87.436,0 c 0.865,0 1.571,0.705 1.571,1.571 l 0,7.33 0,15.707 0,7.331 z"
       id="path4248"
       inkscape:connector-curvature="0" /><path
       d="m 5.498,35.34 c -0.867,0 -1.57,0.703 -1.57,1.571 l 0,26.178 c 0,0.869 0.702,1.57 1.57,1.57 l 31.256,0 -18.061,-29.319 -13.195,0 z"
       id="path4250"
       inkscape:connector-curvature="0" /></g></svg>