<?xml version="1.0" encoding="UTF-8"?>
<svg id="Layer_1" data-name="Layer 1" xmlns="http://www.w3.org/2000/svg" viewBox="0 0 65 65">
  <path d="M32.5,64c-17.37,0-31.5-14.13-31.5-31.5S15.13,1,32.5,1s31.5,14.13,31.5,31.5-14.13,31.5-31.5,31.5ZM12.7,42.47v9.12h39.55v-9.73h-22.96l22.13-23.08v-8.82H14.89v9.67h19.7l-21.89,22.83Z" style="fill: #fff;"/>
  <path d="M32.5,1.5c17.09,0,31,13.91,31,31s-13.91,31-31,31S1.5,49.59,1.5,32.5,15.41,1.5,32.5,1.5M14.39,20.15h19.03l-20.94,21.83-.28.29v9.83h40.55v-10.73h-22.29l21.18-22.08.28-.29v-9.52H14.39v10.67M32.5.5C14.83.5.5,14.83.5,32.5s14.33,32,32,32,32-14.33,32-32S50.17.5,32.5.5h0ZM15.39,19.15v-8.67h35.52v8.12l-22.8,23.78h23.64v8.73H13.2v-8.42l22.56-23.53H15.39Z" style="fill: #fff;"/>
</svg>