<svg xmlns="http://www.w3.org/2000/svg" xmlns:xlink="http://www.w3.org/1999/xlink" version="1.1" x="0px" y="0px" viewBox="0 0 100 125" enable-background="new 0 0 100 100" xml:space="preserve"><path d="M99.9,43.744c-0.185-0.751-0.773-1.339-1.523-1.524l-0.067-0.068h-3.573v-7.325c0-2.019-1.644-3.662-3.662-3.662H3.694  c-2.019,0-3.662,1.644-3.662,3.662v30.348c0,2.02,1.644,3.662,3.662,3.662h87.38c2.019,0,3.662-1.643,3.662-3.662v-7.325h3.573  l0.067-0.067c0.75-0.186,1.339-0.774,1.523-1.524l0.068-0.068V43.812L99.9,43.744z M92.643,65.174c0,0.865-0.704,1.57-1.569,1.57  H3.694c-0.865,0-1.569-0.705-1.569-1.57V34.826c0-0.865,0.704-1.569,1.569-1.569h87.38c0.865,0,1.569,0.704,1.569,1.569v7.325  v15.697V65.174z"/><text x="0" y="115" fill="#000000" font-size="5px" font-weight="bold" font-family="'Helvetica Neue', Helvetica, Arial-Unicode, Arial, Sans-serif">Created by Igor Filipe</text><text x="0" y="120" fill="#000000" font-size="5px" font-weight="bold" font-family="'Helvetica Neue', Helvetica, Arial-Unicode, Arial, Sans-serif">from the Noun Project</text></svg>