<svg xmlns="http://www.w3.org/2000/svg" xmlns:xlink="http://www.w3.org/1999/xlink" version="1.1" x="0px" y="0px" viewBox="0 0 100 125" enable-background="new 0 0 100 100" xml:space="preserve"><g><path d="M99.9,43.743c-0.186-0.75-0.773-1.339-1.523-1.524l-0.068-0.067h-3.572v-7.325c0-2.02-1.645-3.662-3.662-3.662H3.693   c-2.018,0-3.662,1.643-3.662,3.662v30.347c0,2.02,1.645,3.663,3.662,3.663h87.381c2.018,0,3.662-1.644,3.662-3.663v-7.324h3.572   l0.068-0.068c0.75-0.186,1.338-0.773,1.523-1.524l0.068-0.067V43.811L99.9,43.743z M92.643,65.173c0,0.865-0.703,1.569-1.568,1.569   H3.693c-0.865,0-1.568-0.704-1.568-1.569V34.826c0-0.866,0.703-1.57,1.568-1.57h87.381c0.865,0,1.568,0.704,1.568,1.57v7.325   v15.697V65.173z"/><path d="M64.723,48.533l-0.289-0.073l-8.291-2.073l-13.391-3.345l-0.264-0.068c-0.016-0.006-0.035-0.006-0.053-0.006   c-0.428,0-0.773,0.348-0.773,0.776v6.263H30.371c-0.432,0-0.777,0.348-0.777,0.776c0,0.33,0.203,0.609,0.492,0.724   c0.041,0.015,0.082,0.026,0.129,0.037c0.004,0,0.004,0,0.01,0l8.334,2.085l13.551,3.387c0.045,0.01,0.102,0.016,0.154,0.016   c0.43,0,0.775-0.348,0.775-0.776v-6.248h11.359c0.428,0,0.775-0.346,0.775-0.774C65.174,48.922,64.988,48.651,64.723,48.533z"/></g><text x="0" y="115" fill="#000000" font-size="5px" font-weight="bold" font-family="'Helvetica Neue', Helvetica, Arial-Unicode, Arial, Sans-serif">Created by Igor Filipe</text><text x="0" y="120" fill="#000000" font-size="5px" font-weight="bold" font-family="'Helvetica Neue', Helvetica, Arial-Unicode, Arial, Sans-serif">from the Noun Project</text></svg>