<svg xmlns="http://www.w3.org/2000/svg" xmlns:xlink="http://www.w3.org/1999/xlink" version="1.1" x="0px" y="0px" viewBox="0 0 100 125" enable-background="new 0 0 100 100" xml:space="preserve"><g><path d="M99.933,43.739c-0.186-0.751-0.774-1.34-1.525-1.525l-0.067-0.067h-3.575v-7.33c0-2.021-1.645-3.665-3.664-3.665H3.665   C1.646,31.151,0,32.796,0,34.816v30.367c0,2.02,1.646,3.665,3.665,3.665h87.436c2.02,0,3.664-1.646,3.664-3.665v-7.33h3.575   l0.067-0.068c0.751-0.186,1.34-0.774,1.525-1.525L100,56.192V43.808L99.933,43.739z M92.672,65.184c0,0.866-0.706,1.57-1.571,1.57   H3.665c-0.866,0-1.57-0.704-1.57-1.57V34.816c0-0.866,0.704-1.571,1.57-1.571h87.436c0.865,0,1.571,0.705,1.571,1.571v7.33v15.707   V65.184z"/><path d="M5.498,35.34c-0.867,0-1.57,0.703-1.57,1.571v26.178c0,0.869,0.702,1.57,1.57,1.57h31.256L18.693,35.34H5.498z"/></g><text x="0" y="115" fill="#000000" font-size="5px" font-weight="bold" font-family="'Helvetica Neue', Helvetica, Arial-Unicode, Arial, Sans-serif">Created by Igor Filipe</text><text x="0" y="120" fill="#000000" font-size="5px" font-weight="bold" font-family="'Helvetica Neue', Helvetica, Arial-Unicode, Arial, Sans-serif">from the Noun Project</text></svg>