<svg xmlns="http://www.w3.org/2000/svg" xmlns:xlink="http://www.w3.org/1999/xlink" version="1.1" x="0px" y="0px" viewBox="0 0 100 125" enable-background="new 0 0 100 100" xml:space="preserve"><g><path d="M99.932,43.74c-0.186-0.751-0.775-1.34-1.525-1.525l-0.067-0.068h-3.575v-7.33c0-2.021-1.645-3.665-3.665-3.665H3.664   C1.644,31.152,0,32.796,0,34.817v30.366c0,2.021,1.644,3.665,3.664,3.665h87.435c2.021,0,3.665-1.644,3.665-3.665v-7.33h3.575   l0.067-0.068c0.75-0.186,1.34-0.774,1.525-1.525L100,56.192V43.807L99.932,43.74z M92.669,65.183c0,0.866-0.704,1.571-1.57,1.571   H3.664c-0.865,0-1.57-0.705-1.57-1.571V34.817c0-0.866,0.705-1.571,1.57-1.571h87.435c0.866,0,1.57,0.705,1.57,1.571v7.33v15.707   V65.183z"/><polygon points="21.987,35.341 39.998,64.66 58.131,64.66 39.998,35.34  "/><path d="M5.497,35.34c-0.868,0-1.571,0.703-1.571,1.571v26.178c0,0.869,0.701,1.571,1.571,1.571h31.256L18.691,35.34H5.497z"/></g><text x="0" y="115" fill="#000000" font-size="5px" font-weight="bold" font-family="'Helvetica Neue', Helvetica, Arial-Unicode, Arial, Sans-serif">Created by Igor Filipe</text><text x="0" y="120" fill="#000000" font-size="5px" font-weight="bold" font-family="'Helvetica Neue', Helvetica, Arial-Unicode, Arial, Sans-serif">from the Noun Project</text></svg>