<svg xmlns="http://www.w3.org/2000/svg" xmlns:xlink="http://www.w3.org/1999/xlink" version="1.1" x="0px" y="0px" viewBox="0 0 100 125" enable-background="new 0 0 100 100" xml:space="preserve"><g><path d="M99.9,43.744c-0.186-0.751-0.774-1.339-1.524-1.524l-0.067-0.067h-3.573v-7.325c0-2.02-1.644-3.663-3.662-3.663H3.695   c-2.019,0-3.662,1.644-3.662,3.663v30.347c0,2.02,1.644,3.662,3.662,3.662h87.378c2.019,0,3.662-1.643,3.662-3.662v-7.325h3.573   l0.067-0.067c0.75-0.187,1.339-0.774,1.524-1.525l0.067-0.066V43.812L99.9,43.744z M92.642,65.174c0,0.865-0.704,1.569-1.569,1.569   H3.695c-0.865,0-1.569-0.704-1.569-1.569V34.827c0-0.866,0.704-1.57,1.569-1.57h87.378c0.865,0,1.569,0.704,1.569,1.57v7.325   v15.696V65.174z"/><polygon points="22.006,35.351 40.005,64.65 58.126,64.65 40.005,35.351  "/><polygon points="43.362,35.351 61.362,64.65 79.482,64.65 61.362,35.351  "/><path d="M5.527,35.351c-0.868,0-1.57,0.702-1.57,1.569v26.161c0,0.868,0.7,1.569,1.57,1.569h31.235l-18.05-29.3H5.527z"/><path d="M89.137,35.351H64.716l18.061,29.3h6.36c0.869,0,1.57-0.701,1.57-1.569V36.92C90.708,36.051,90.006,35.351,89.137,35.351z"/></g><text x="0" y="115" fill="#000000" font-size="5px" font-weight="bold" font-family="'Helvetica Neue', Helvetica, Arial-Unicode, Arial, Sans-serif">Created by Igor Filipe</text><text x="0" y="120" fill="#000000" font-size="5px" font-weight="bold" font-family="'Helvetica Neue', Helvetica, Arial-Unicode, Arial, Sans-serif">from the Noun Project</text></svg>